<svg xmlns="http://www.w3.org/2000/svg" viewBox="0 0 1600 900" preserveAspectRatio="xMidYMid slice">
  <defs>
    <linearGradient id="bg" x1="0" y1="0" x2="1" y2="1">
      <stop stop-color="#0c1331"/>
      <stop offset="1" stop-color="#112c45"/>
    </linearGradient>
    <filter id="blur"><feGaussianBlur stdDeviation="28"/></filter>
  </defs>
  <rect width="1600" height="900" fill="url(#bg)"/>
  <g filter="url(#blur)" opacity="0.82">
    <path d="M-120 210C120 60 270 80 520 220s430 160 760 40 450-110 560-20v350c-200-90-340-80-610 28s-470 120-750-14S90 560-120 670Z" fill="#4ef7c8">
      <animate attributeName="d" dur="12s" repeatCount="indefinite"
        values="M-120 210C120 60 270 80 520 220s430 160 760 40 450-110 560-20v350c-200-90-340-80-610 28s-470 120-750-14S90 560-120 670Z;
                M-120 250C140 90 290 50 560 180s450 140 740 20 420-80 540 40v350c-220-70-380-60-640 40s-440 112-720-10S80 600-120 700Z;
                M-120 210C120 60 270 80 520 220s430 160 760 40 450-110 560-20v350c-200-90-340-80-610 28s-470 120-750-14S90 560-120 670Z"/>
    </path>
    <path d="M-140 380C160 230 300 250 540 370s360 170 620 90 410-150 580-110v290c-170-44-320-18-560 50s-450 76-700-18S70 610-140 690Z" fill="#9c7cff" opacity="0.72">
      <animate attributeName="d" dur="14s" repeatCount="indefinite"
        values="M-140 380C160 230 300 250 540 370s360 170 620 90 410-150 580-110v290c-170-44-320-18-560 50s-450 76-700-18S70 610-140 690Z;
                M-140 420C120 250 340 270 570 360s370 160 610 70 430-130 600-70v290c-210-54-350-10-590 40s-430 84-690-12S60 640-140 720Z;
                M-140 380C160 230 300 250 540 370s360 170 620 90 410-150 580-110v290c-170-44-320-18-560 50s-450 76-700-18S70 610-140 690Z"/>
    </path>
  </g>
  <rect y="750" width="1600" height="150" fill="rgba(4,10,20,0.42)"/>
</svg>
